<!DOCTYPE svg PUBLIC "-//W3C//DTD SVG 1.1//EN" "http://www.w3.org/Graphics/SVG/1.1/DTD/svg11.dtd">
<!-- Uploaded to: SVG Repo, www.svgrepo.com, Transformed by: SVG Repo Mixer Tools -->
<svg fill="#6a98e2" width="256px" height="256px" viewBox="0 0 32.00 32.00" version="1.1" xmlns="http://www.w3.org/2000/svg" stroke="#6a98e2" stroke-width="3.2">
<g id="SVGRepo_bgCarrier" stroke-width="0"/>
<g id="SVGRepo_tracerCarrier" stroke-linecap="round" stroke-linejoin="round"/>
<g id="SVGRepo_iconCarrier"> <title>z</title> <path d="M25.264 5.562v-0.769c-0.001-0.442-0.359-0.8-0.801-0.8h-16.639c-0.442 0-0.8 0.358-0.8 0.8v0.929c0 0.442 0.358 0.8 0.8 0.8h13.738l-14.885 19.418c-0.103 0.133-0.165 0.302-0.165 0.485 0 0 0 0.001 0 0.002v-0 0.768c0 0.442 0.358 0.8 0.8 0.801h17.119c0.442-0.001 0.8-0.359 0.801-0.801v-0.928c-0.001-0.442-0.359-0.8-0.801-0.801h-14.219l14.885-19.417c0.103-0.133 0.166-0.302 0.166-0.486v-0z"/> </g>
</svg>